<svg viewBox="0 0 26 26" fill="none" xmlns="http://www.w3.org/2000/svg">
    <circle cx="13" cy="13" r="11" stroke="#18A0FB" fill="transparent" stroke-width="2"/>
    <path d="M13 10H11C10.7348 10 10.4804 10.1054 10.2929 10.2929C10.1054 10.4804 10 10.7348 10 11C10 11.2652 10.1054 11.5196 10.2929 11.7071C10.4804 11.8946 10.7348 12 11 12H12V19C12 19.2652 12.1054 19.5196 12.2929 19.7071C12.4804 19.8946 12.7348 20 13 20C13.2652 20 13.5196 19.8946 13.7071 19.7071C13.8946 19.5196 14 19.2652 14 19V11C14 10.7348 13.8946 10.4804 13.7071 10.2929C13.5196 10.1054 13.2652 10 13 10Z" fill="#18A0FB"/>
    <path d="M13.02 6.00006H13.01C12.7439 6.00138 12.4892 6.10819 12.3017 6.29706C12.1143 6.48593 12.0094 6.74144 12.01 7.00755C12.0107 7.27366 12.1169 7.52864 12.3053 7.71657C12.4937 7.90451 12.7489 8.01005 13.015 8.01005C13.2811 8.01005 13.5364 7.90451 13.7248 7.71657C13.9132 7.52864 14.0193 7.27366 14.02 7.00755C14.0207 6.74144 13.9158 6.48593 13.7283 6.29706C13.5408 6.10819 13.2861 6.00138 13.02 6.00006Z" fill="#18A0FB"/>
</svg>
