<svg viewBox="0 0 20 20" xmlns="http://www.w3.org/2000/svg">
    <path fill-rule="evenodd" clip-rule="evenodd" d="M2.26958 2.29295C2.44242 2.12059 2.67671 2.02377 2.92099 2.02377C3.16526 2.02377 3.39955 2.12059 3.57239 2.29295L9.9881 8.69913L16.4038 2.29295C16.4882 2.20252 16.59 2.12999 16.703 2.07968C16.8161 2.02937 16.9382 2.00232 17.0619 2.00014C17.1857 1.99796 17.3087 2.0207 17.4234 2.06699C17.5382 2.11328 17.6425 2.18218 17.73 2.26959C17.8175 2.35699 17.8866 2.4611 17.9329 2.57571C17.9793 2.69032 18.002 2.81308 17.9999 2.93666C17.9977 3.06025 17.9706 3.18213 17.9202 3.29504C17.8698 3.40794 17.7972 3.50956 17.7066 3.59382L11.2909 10L17.7066 16.4062C17.7972 16.4904 17.8698 16.5921 17.9202 16.705C17.9706 16.8179 17.9977 16.9398 17.9999 17.0633C18.002 17.1869 17.9793 17.3097 17.9329 17.4243C17.8866 17.5389 17.8175 17.643 17.73 17.7304C17.6425 17.8178 17.5382 17.8867 17.4234 17.933C17.3087 17.9793 17.1857 18.002 17.0619 17.9999C16.9382 17.9977 16.8161 17.9706 16.703 17.9203C16.59 17.87 16.4882 17.7975 16.4038 17.7071L9.9881 11.3009L3.57239 17.7071C3.39765 17.8696 3.16653 17.9581 2.92772 17.9539C2.68891 17.9497 2.46106 17.8531 2.29217 17.6845C2.12328 17.5159 2.02654 17.2883 2.02233 17.0499C2.01811 16.8114 2.10676 16.5807 2.26958 16.4062L8.68529 10L2.26958 3.59382C2.09696 3.42124 2 3.1873 2 2.94339C2 2.69947 2.09696 2.46553 2.26958 2.29295Z"/>
</svg>
